HIERARCHY
ROOT hip
{
  OFFSET 0 0 0
  CHANNELS 6 Xposition Yposition Zposition Zrotation Yrotation Xrotation
  JOINT abdomen
  {
    OFFSET 0 20.6881 -0.73152
    CHANNELS 3 Zrotation Xrotation Yrotation
    JOINT chest
    {
      OFFSET 0 11.7043 -0.48768
      CHANNELS 3 Zrotation Xrotation Yrotation
      JOINT neck
      {
        OFFSET 0 22.1894 -2.19456
        CHANNELS 3 Zrotation Xrotation Yrotation
        JOINT head
        {
          OFFSET -0.24384 7.07133 1.2192
          CHANNELS 3 Zrotation Xrotation Yrotation
          JOINT leftEye
          {
            OFFSET 4.14528 8.04674 8.04672
            CHANNELS 3 Zrotation Xrotation Yrotation
            End Site
            {
              OFFSET 1 0 0
            }
          }
          JOINT rightEye
          {
            OFFSET -3.6576 8.04674 8.04672
            CHANNELS 3 Zrotation Xrotation Yrotation
            End Site
            {
              OFFSET 1 0 0
            }
          }
        }
      }
      JOINT rCollar
      {
        OFFSET -2.68224 19.2634 -4.8768
        CHANNELS 3 Zrotation Xrotation Yrotation
        JOINT rShldr
        {
          OFFSET -8.77824 -1.95073 1.46304
          CHANNELS 3 Zrotation Xrotation Yrotation
          JOINT rForeArm
          {
            OFFSET -28.1742 -1.7115 0.48768
            CHANNELS 3 Zrotation Xrotation Yrotation
            JOINT rHand
            {
              OFFSET -22.5879 0.773209 7.07136
              CHANNELS 3 Zrotation Xrotation Yrotation
              JOINT rThumb1
              {
                OFFSET -1.2192 -0.487915 3.41376
                CHANNELS 3 Zrotation Xrotation Yrotation
                JOINT rThumb2
                {
                  OFFSET -3.37035 -0.52449 3.41376
                  CHANNELS 3 Zrotation Xrotation Yrotation
                  End Site
                  {
                    OFFSET -1.78271 -1.18214 1.43049
                  }
                }
              }
              JOINT rIndex1
              {
                OFFSET -7.75947 0.938293 5.60832
                CHANNELS 3 Zrotation Xrotation Yrotation
                JOINT rIndex2
                {
                  OFFSET -2.54057 -0.884171 1.56538
                  CHANNELS 3 Zrotation Xrotation Yrotation
                  End Site
                  {
                    OFFSET -1.62519 -0.234802 1.16502
                  }
                }
              }
              JOINT rMid1
              {
                OFFSET -8.24714 1.18213 3.41376
                CHANNELS 3 Zrotation Xrotation Yrotation
                JOINT rMid2
                {
                  OFFSET -3.10165 -0.590103 1.0647
                  CHANNELS 3 Zrotation Xrotation Yrotation
                  End Site
                  {
                    OFFSET -2.48547 -0.328903 0.83742
                  }
                }
              }
              JOINT rRing1
              {
                OFFSET -8.82822 0.546677 1.51678
                CHANNELS 3 Zrotation Xrotation Yrotation
                JOINT rRing2
                {
                  OFFSET -2.60934 -0.819778 -0.0198488
                  CHANNELS 3 Zrotation Xrotation Yrotation
                  End Site
                  {
                    OFFSET -2.33842 -0.294052 0.168128
                  }
                }
              }
              JOINT rPinky1
              {
                OFFSET -8.27202 -0.0477905 -0.4584
                CHANNELS 3 Zrotation Xrotation Yrotation
                JOINT rPinky2
                {
                  OFFSET -1.82734 -0.647385 -0.700984
                  CHANNELS 3 Zrotation Xrotation Yrotation
                  End Site
                  {
                    OFFSET -1.69225 -0.51767 -0.607171
                  }
                }
              }
            }
          }
        }
      }
      JOINT lCollar
      {
        OFFSET 2.68224 19.2634 -4.8768
        CHANNELS 3 Zrotation Xrotation Yrotation
        JOINT lShldr
        {
          OFFSET 8.77824 -1.95073 1.46304
          CHANNELS 3 Zrotation Xrotation Yrotation
          JOINT lForeArm
          {
            OFFSET 28.1742 -1.7115 0.48768
            CHANNELS 3 Zrotation Xrotation Yrotation
            JOINT lHand
            {
              OFFSET 22.5879 0.773209 7.07136
              CHANNELS 3 Zrotation Xrotation Yrotation
              JOINT lThumb1
              {
                OFFSET 1.2192 -0.487915 3.41376
                CHANNELS 3 Zrotation Xrotation Yrotation
                JOINT lThumb2
                {
                  OFFSET 3.37035 -0.52449 3.41376
                  CHANNELS 3 Zrotation Xrotation Yrotation
                  End Site
                  {
                    OFFSET 1.78271 -1.18214 1.43049
                  }
                }
              }
              JOINT lIndex1
              {
                OFFSET 7.75947 0.938293 5.60832
                CHANNELS 3 Zrotation Xrotation Yrotation
                JOINT lIndex2
                {
                  OFFSET 2.54057 -0.884171 1.56538
                  CHANNELS 3 Zrotation Xrotation Yrotation
                  End Site
                  {
                    OFFSET 1.62519 -0.234802 1.16502
                  }
                }
              }
              JOINT lMid1
              {
                OFFSET 8.24714 1.18213 3.41376
                CHANNELS 3 Zrotation Xrotation Yrotation
                JOINT lMid2
                {
                  OFFSET 3.10165 -0.590103 1.0647
                  CHANNELS 3 Zrotation Xrotation Yrotation
                  End Site
                  {
                    OFFSET 2.48547 -0.328903 0.83742
                  }
                }
              }
              JOINT lRing1
              {
                OFFSET 8.82822 0.546677 1.51678
                CHANNELS 3 Zrotation Xrotation Yrotation
                JOINT lRing2
                {
                  OFFSET 2.60934 -0.819778 -0.0198488
                  CHANNELS 3 Zrotation Xrotation Yrotation
                  End Site
                  {
                    OFFSET 2.33842 -0.294052 0.168128
                  }
                }
              }
              JOINT lPinky1
              {
                OFFSET 8.27202 -0.0477905 -0.4584
                CHANNELS 3 Zrotation Xrotation Yrotation
                JOINT lPinky2
                {
                  OFFSET 1.82734 -0.647385 -0.700984
                  CHANNELS 3 Zrotation Xrotation Yrotation
                  End Site
                  {
                    OFFSET 1.69225 -0.51767 -0.607171
                  }
                }
              }
            }
          }
        }
      }
    }
  }
  JOINT rButtock
  {
    OFFSET -8.77824 4.35084 1.2192
    CHANNELS 3 Zrotation Xrotation Yrotation
    JOINT rThigh
    {
      OFFSET 0 -1.70687 -2.19456
      CHANNELS 3 Zrotation Xrotation Yrotation
      JOINT rShin
      {
        OFFSET 0 -36.8199 0.73152
        CHANNELS 3 Zrotation Xrotation Yrotation
        JOINT rFoot
        {
          OFFSET 0.73152 -45.1104 -5.12064
          CHANNELS 3 Zrotation Xrotation Yrotation
          End Site
          {
            OFFSET -1.1221 -3.69964 12.103
          }
        }
      }
    }
  }
  JOINT lButtock
  {
    OFFSET 8.77824 4.35084 1.2192
    CHANNELS 3 Zrotation Xrotation Yrotation
    JOINT lThigh
    {
      OFFSET 0 -1.70687 -2.19456
      CHANNELS 3 Zrotation Xrotation Yrotation
      JOINT lShin
      {
        OFFSET 0 -36.8199 0.73152
        CHANNELS 3 Zrotation Xrotation Yrotation
        JOINT lFoot
        {
          OFFSET -0.73152 -45.1104 -5.12064
          CHANNELS 3 Zrotation Xrotation Yrotation
          End Site
          {
            OFFSET 1.1221 -3.69964 12.103
          }
        }
      }
    }
  }
}
MOTION
Frames:	6
Frame Time:	0.00833333
16.1772 84.9514 -142.059 0.0 0.0 0.0 -0.0821278 -0.00059842 -0.00235244 -0.0226703 -0.000955189 -0.00392731 2.83005e-16 7.95139e-16 9.72065e-25 8.66577e-16 9.54166e-15 -4.65902e-18 -0.0 0.0 0.0 -0.0 0.0 0.0 1.9746e-16 -1.16475e-18 9.93923e-17 5.14685e-15 -3.29237e-16 9.93923e-16 5.78463e-14 -1.55052e-14 -9.54166e-15 6.1053e-13 1.64991e-14 0.0 1.44868e-12 6.56029e-15 0.0 2.486e-12 9.54166e-15 -3.97569e-15 1.45272e-12 6.75868e-15 -1.27222e-14 7.73091 5.47488 0.417314 1.4471e-12 5.46658e-15 6.36111e-15 2.90554 0.965183 0.102902 1.45454e-12 6.16232e-15 -5.56597e-15 10.2786 0.731801 0.0259123 1.43523e-12 1.07344e-14 0.0 2.22167 -0.733487 -0.20892 1.00726e-16 -7.76503e-19 -9.93923e-17 1.21455e-15 -4.28629e-16 -9.93923e-16 5.06901e-14 1.47101e-14 -6.36111e-15 6.14704e-13 -2.39784e-14 0.0 1.44708e-12 -1.52691e-14 -1.59028e-14 2.51463e-12 -2.54444e-14 -5.56597e-15 1.44278e-12 -1.70955e-14 0.0 -7.73091 5.47488 -0.417314 1.44735e-12 -1.61016e-14 -9.54166e-15 -2.90554 0.965183 -0.102902 1.44237e-12 -1.51076e-14 -3.18055e-15 -10.2786 0.731801 -0.0259123 1.45431e-12 -1.07344e-14 -3.18055e-15 -2.22167 -0.733487 0.20892 -2.03217e-16 0.0 -3.88251e-19 0.419517 -2.96758 -0.0374307 -0.00606591 -0.177342 -0.0534203 -0.481466 3.14428 0.118508 2.03217e-16 0.0 3.88251e-19 -0.54477 -3.29623 0.0452325 0.00510396 0.417973 0.0447106 0.482715 2.87763 -0.113278
14.4399 83.1709 -142.282 -5.9557 -3.1364 2.5113 1.78771 0.3215 0.397791 -0.269047 -1.2889 0.114249 4.22813 5.96312 1.22854 -8.82035 -13.1184 -0.730009 -0.0 0.0 0.0 -0.0 0.0 0.0 -5.19257e-14 -7.92794e-16 1.39895e-14 17.5497 12.7537 8.97082 -19.6081 -17.323 15.1616 0.0687533 -5.82676 -0.803728 -5.81456e-11 -3.60719e-11 -1.4596e-10 -9.87947e-11 -5.63351e-11 -2.52907e-10 -5.81422e-11 -3.60707e-11 -1.45973e-10 7.73091 5.47488 0.417314 -5.81473e-11 -3.60715e-11 -1.45956e-10 2.90554 0.965183 0.102902 -5.81409e-11 -3.60707e-11 -1.45965e-10 10.2786 0.731801 0.0259123 -5.81555e-11 -3.60673e-11 -1.45958e-10 2.22167 -0.733487 -0.20892 -5.20079e-14 -7.92664e-16 1.37511e-14 3.32031 -5.77648 -3.07335 13.9305 -11.0431 -14.2162 0.00236779 0.00195494 -0.000128642 1.37864e-10 2.66221e-10 -2.35346e-10 2.38236e-10 4.60302e-10 -4.06487e-10 1.37859e-10 2.66219e-10 -2.35333e-10 -7.73091 5.47488 -0.417314 1.37865e-10 2.66221e-10 -2.35343e-10 -2.90554 0.965183 -0.102902 1.3786e-10 2.6622e-10 -2.35337e-10 -10.2786 0.731801 -0.0259123 1.37871e-10 2.66225e-10 -2.35338e-10 -2.22167 -0.733487 0.20892 -2.03217e-16 0.0 -3.88251e-19 2.83795 -4.63486 -0.127308 0.0184947 8.15938 0.0951224 -0.349213 -4.06903 0.773926 2.03217e-16 0.0 3.88251e-19 1.09883 -8.78946 -0.422737 -0.0152631 11.6749 -0.133483 0.549816 -3.07423 0.647504
14.7311 83.1426 -142.043 -5.2875 -2.4075 2.2719 3.82986 0.66542 0.83324 -0.511613 -2.65462 0.244053 8.429 12.246 2.57194 -18.5842 -26.9519 -1.65142 -0.0 0.0 0.0 -0.0 0.0 0.0 -1.09501e-13 -2.2118e-15 2.90474e-14 31.4202 25.1561 19.9688 -29.4304 -31.3617 35.5221 -0.0397932 -11.9548 -1.67762 -1.23301e-10 -6.87568e-11 -3.12485e-10 -2.09408e-10 -1.05884e-10 -5.41409e-10 -1.23298e-10 -6.87545e-11 -3.12498e-10 7.73091 5.47488 0.417314 -1.23302e-10 -6.87548e-11 -3.12484e-10 2.90554 0.965183 0.102902 -1.23297e-10 -6.87538e-11 -3.12489e-10 10.2786 0.731801 0.0259123 -1.23307e-10 -6.87518e-11 -3.12479e-10 2.22167 -0.733487 -0.20892 -1.09567e-13 -2.21196e-15 2.87679e-14 6.15283 -11.8241 -6.39744 22.6075 -20.3738 -30.7984 0.00646585 0.128617 -0.0176859 2.86751e-10 5.62282e-10 -4.95681e-10 4.95508e-10 9.72227e-10 -8.56167e-10 2.86745e-10 5.6228e-10 -4.95671e-10 -7.73091 5.47488 -0.417314 2.86752e-10 5.62282e-10 -4.95683e-10 -2.90554 0.965183 -0.102902 2.86747e-10 5.6228e-10 -4.95677e-10 -10.2786 0.731801 -0.0259123 2.86757e-10 5.62285e-10 -4.95677e-10 -2.22167 -0.733487 0.20892 -2.03217e-16 0.0 -3.88251e-19 5.45711 -6.35402 -0.22953 -0.00395585 16.8856 0.26041 -0.0196686 -11.6823 1.52126 2.03217e-16 0.0 3.88251e-19 2.81052 -14.6066 -0.935143 0.045139 23.599 -0.345911 0.799898 -9.37362 1.49047
14.963 83.0783 -141.823 -4.8466 -1.7022 2.1589 5.5139 0.965508 1.19823 -0.74583 -3.86473 0.351313 11.8848 17.8556 3.85145 -27.7124 -39.3258 -2.75766 -0.0 0.0 0.0 -0.0 0.0 0.0 -1.56172e-13 -2.37605e-15 4.17696e-14 39.1177 34.1271 32.2875 -29.5625 -35.8731 57.9455 -0.304161 -17.4662 -2.51474 -1.77334e-10 -1.08229e-10 -4.37881e-10 -3.01356e-10 -1.69024e-10 -7.58712e-10 -1.77332e-10 -1.08226e-10 -4.37894e-10 7.73091 5.47488 0.417314 -1.77336e-10 -1.08225e-10 -4.37882e-10 2.90554 0.965183 0.102902 -1.77332e-10 -1.08224e-10 -4.37885e-10 10.2786 0.731801 0.0259123 -1.77337e-10 -1.08223e-10 -4.37873e-10 2.22167 -0.733487 -0.20892 -1.56225e-13 -2.37644e-15 4.1452e-14 8.03773 -17.1254 -9.6027 25.7801 -24.7204 -47.2557 0.00710339 0.0058648 -0.000385929 4.10698e-10 7.98695e-10 -7.06006e-10 7.09678e-10 1.38096e-09 -1.21945e-09 4.10691e-10 7.98692e-10 -7.05999e-10 -7.73091 5.47488 -0.417314 4.107e-10 7.98696e-10 -7.06011e-10 -2.90554 0.965183 -0.102902 4.10695e-10 7.98692e-10 -7.06005e-10 -10.2786 0.731801 -0.0259123 4.10703e-10 7.98696e-10 -7.06006e-10 -2.22167 -0.733487 0.20892 -2.03217e-16 0.0 -3.88251e-19 7.65898 -7.96936 -0.308896 -0.0723727 24.8322 0.428982 0.432928 -18.4841 2.19242 2.03217e-16 0.0 3.88251e-19 4.10197 -19.771 -1.42782 0.189454 34.1873 -0.582185 1.17056 -14.9676 2.24209
15.1199 83.0121 -141.811 -4.6283 -1.2919 2.2426 6.31304 1.15622 1.38691 -0.971536 -4.6859 0.401458 14.0501 21.8136 4.81553 -34.2965 -48.0794 -3.80818 -0.0 0.0 0.0 -0.0 0.0 0.0 -1.7558e-13 5.96548e-16 4.86525e-14 41.7948 38.5178 42.5251 -28.3397 -33.3365 72.6126 -0.599637 -21.4491 -3.16527 -2.03564e-10 -1.64668e-10 -4.60455e-10 -3.46639e-10 -2.66142e-10 -7.98016e-10 -2.03563e-10 -1.64664e-10 -4.60468e-10 7.73091 5.47488 0.417314 -2.03566e-10 -1.64664e-10 -4.60458e-10 2.90554 0.965183 0.102902 -2.03562e-10 -1.64663e-10 -4.60458e-10 10.2786 0.731801 0.0259123 -2.03565e-10 -1.64663e-10 -4.60446e-10 2.22167 -0.733487 -0.20892 -1.75634e-13 5.9616e-16 4.83047e-14 8.90208 -20.7452 -12.1557 26.4997 -24.7907 -58.9474 0.00067242 -0.740423 0.104066 4.72296e-10 8.85988e-10 -7.91306e-10 8.16095e-10 1.5317e-09 -1.36673e-09 4.72289e-10 8.85986e-10 -7.913e-10 -7.73091 5.47488 -0.417314 4.72299e-10 8.85989e-10 -7.91312e-10 -2.90554 0.965183 -0.102902 4.72293e-10 8.85985e-10 -7.91308e-10 -10.2786 0.731801 -0.0259123 4.72301e-10 8.85989e-10 -7.91309e-10 -2.22167 -0.733487 0.20892 -2.03217e-16 0.0 -3.88251e-19 8.83027 -9.32524 -0.329473 -0.15887 30.8305 0.573245 0.785656 -23.2703 2.55627 2.03217e-16 0.0 3.88251e-19 4.54709 -23.3079 -1.80895 0.357456 41.4375 -0.789735 1.47141 -18.8099 2.68341
15.5652 82.9827 -141.657 -3.2685 -0.7168 2.1087 5.84081 1.18072 1.34136 -1.17773 -4.9562 0.375261 14.6538 23.5228 5.23772 -36.4824 -51.854 -4.13954 -0.0 0.0 0.0 -0.0 0.0 0.0 -1.54754e-13 8.19826e-15 4.34678e-14 42.4599 39.7796 46.7321 -28.2587 -31.2468 77.4831 -0.763665 -23.3216 -3.48622 -1.82127e-10 -2.24469e-10 -3.17873e-10 -3.11895e-10 -3.77155e-10 -5.51185e-10 -1.82126e-10 -2.24464e-10 -3.17883e-10 7.73091 5.47488 0.417314 -1.82129e-10 -2.24465e-10 -3.17877e-10 2.90554 0.965183 0.102902 -1.82124e-10 -2.24463e-10 -3.17874e-10 10.2786 0.731801 0.0259123 -1.82128e-10 -2.24464e-10 -3.17862e-10 2.22167 -0.733487 -0.20892 -1.54828e-13 8.19836e-15 4.30982e-14 8.99818 -22.1221 -13.5368 26.7238 -24.1844 -63.5216 -0.00167582 -2.3401 0.328922 4.37085e-10 7.20035e-10 -6.87481e-10 7.55385e-10 1.2444e-09 -1.1874e-09 4.3708e-10 7.20035e-10 -6.87474e-10 -7.73091 5.47488 -0.417314 4.37088e-10 7.20037e-10 -6.87486e-10 -2.90554 0.965183 -0.102902 4.37081e-10 7.20033e-10 -6.87483e-10 -10.2786 0.731801 -0.0259123 4.3709e-10 7.20036e-10 -6.87486e-10 -2.22167 -0.733487 0.20892 -2.03217e-16 0.0 -3.88251e-19 8.54631 -10.3061 -0.229146 -0.218179 34.0804 0.65552 0.800543 -25.2708 2.40038 2.03217e-16 0.0 3.88251e-19 3.8702 -24.5768 -1.99773 0.436716 44.0218 -0.872161 1.52657 -20.2019 2.6902
